<svg width="16" height="18" viewBox="0 0 16 18" fill="none" xmlns="http://www.w3.org/2000/svg">
<path d="M8 8.72727C10.525 8.72727 12.5714 6.77386 12.5714 4.36364C12.5714 1.95341 10.525 0 8 0C5.475 0 3.42857 1.95341 3.42857 4.36364C3.42857 6.77386 5.475 8.72727 8 8.72727ZM11.2 9.81818H10.6036C9.81071 10.1659 8.92857 10.3636 8 10.3636C7.07143 10.3636 6.19286 10.1659 5.39643 9.81818H4.8C2.15 9.81818 0 11.8705 0 14.4V15.8182C0 16.7216 0.767857 17.4545 1.71429 17.4545H14.2857C15.2321 17.4545 16 16.7216 16 15.8182V14.4C16 11.8705 13.85 9.81818 11.2 9.81818Z" fill="#C4C4C4" fill-opacity="0.55"/>
</svg>
