<svg width="16" height="17" viewBox="0 0 16 17" fill="none" xmlns="http://www.w3.org/2000/svg">
<path d="M14.67 9.71048L15.9831 3.00735C16.0779 2.52337 15.7609 2.0625 15.3331 2.0625H4.42245L4.16783 0.618428C4.10439 0.258489 3.83139 0 3.5147 0H0.666667C0.298472 0 0 0.346274 0 0.773438V1.28906C0 1.71623 0.298472 2.0625 0.666667 2.0625H2.60786L4.5592 13.1302C4.09236 13.4417 3.77778 14.0257 3.77778 14.6953C3.77778 15.692 4.47422 16.5 5.33333 16.5C6.19245 16.5 6.88889 15.692 6.88889 14.6953C6.88889 14.1902 6.70981 13.7338 6.42156 13.4062H12.2451C11.9569 13.7338 11.7778 14.1902 11.7778 14.6953C11.7778 15.692 12.4742 16.5 13.3333 16.5C14.1924 16.5 14.8889 15.692 14.8889 14.6953C14.8889 13.9808 14.5309 13.3633 14.0117 13.0709L14.1649 12.2886C14.2598 11.8046 13.9427 11.3438 13.5149 11.3438H6.05881L5.877 10.3125H14.0199C14.3312 10.3125 14.601 10.0626 14.67 9.71048Z" fill="#C4C4C4" fill-opacity="0.55"/>
</svg>
